<svg width="25" height="25" viewBox="0 0 25 25" fill="none" xmlns="http://www.w3.org/2000/svg">
<path d="M14.5834 20.8334C15.1359 20.8334 15.6658 20.6139 16.0566 20.2232C16.4473 19.8325 16.6667 19.3026 16.6667 18.7501C16.6667 18.1975 16.4473 17.6676 16.0566 17.2769C15.6658 16.8862 15.1359 16.6667 14.5834 16.6667C14.0309 16.6667 13.501 16.8862 13.1103 17.2769C12.7196 17.6676 12.5001 18.1975 12.5001 18.7501C12.5001 19.3026 12.7196 19.8325 13.1103 20.2232C13.501 20.6139 14.0309 20.8334 14.5834 20.8334ZM7.29174 20.8334C7.84428 20.8334 8.37418 20.6139 8.76488 20.2232C9.15558 19.8325 9.37508 19.3026 9.37508 18.7501C9.37508 18.1975 9.15558 17.6676 8.76488 17.2769C8.37418 16.8862 7.84428 16.6667 7.29174 16.6667C6.73921 16.6667 6.20931 16.8862 5.81861 17.2769C5.4279 17.6676 5.20841 18.1975 5.20841 18.7501C5.20841 19.3026 5.4279 19.8325 5.81861 20.2232C6.20931 20.6139 6.73921 20.8334 7.29174 20.8334ZM20.873 6.16987C21.133 6.16149 21.3796 6.05229 21.5606 5.86538C21.7416 5.67846 21.8428 5.42849 21.8428 5.16831C21.8428 4.90814 21.7416 4.65816 21.5606 4.47125C21.3796 4.28433 21.133 4.17514 20.873 4.16675H19.674C18.7345 4.16675 17.922 4.81883 17.7178 5.7355L16.4126 11.6126C16.2084 12.5292 15.3959 13.1813 14.4563 13.1813H6.63133L5.12924 7.17091H14.8636C15.1212 7.15916 15.3644 7.04856 15.5425 6.86211C15.7206 6.67567 15.82 6.42773 15.82 6.16987C15.82 5.91201 15.7206 5.66408 15.5425 5.47763C15.3644 5.29119 15.1212 5.18059 14.8636 5.16883H5.12924C4.82473 5.16874 4.5242 5.23808 4.25051 5.37157C3.97682 5.50507 3.73716 5.69921 3.54976 5.93923C3.36236 6.17925 3.23215 6.45884 3.16903 6.75674C3.10591 7.05464 3.11154 7.36302 3.1855 7.65841L4.68758 13.6667C4.79586 14.1003 5.046 14.4852 5.39821 14.7602C5.75042 15.0352 6.18447 15.1845 6.63133 15.1845H14.4563C15.368 15.1846 16.2524 14.8738 16.9636 14.3033C17.6748 13.7329 18.1701 12.9369 18.3678 12.047L19.674 6.16987H20.873Z" fill="black"/>
</svg>
