<svg width="50" height="51" viewBox="0 0 50 51" fill="none" xmlns="http://www.w3.org/2000/svg">
<path d="M50 25.5C50 11.6929 38.8071 0.5 25 0.5C11.1929 0.5 0 11.6929 0 25.5C0 39.3071 11.1929 50.5 25 50.5H50V25.5Z" fill="#0156FF"/>
<path d="M23.8918 13.5129C24.2416 12.7147 25.374 12.7147 25.7237 13.5129L28.9109 20.7872C29.056 21.1183 29.3685 21.3454 29.7283 21.381L37.6315 22.1644C38.4987 22.2503 38.8486 23.3273 38.1975 23.9066L32.2642 29.1857C31.9941 29.426 31.8747 29.7934 31.952 30.1465L33.6492 37.905C33.8354 38.7564 32.9193 39.422 32.1672 38.9817L25.3129 34.9701C25.0009 34.7875 24.6146 34.7875 24.3027 34.9701L17.4484 38.9817C16.6962 39.422 15.7801 38.7564 15.9664 37.905L17.6636 30.1465C17.7408 29.7934 17.6215 29.426 17.3514 29.1857L11.418 23.9066C10.7669 23.3273 11.1168 22.2503 11.9841 22.1644L19.8873 21.381C20.247 21.3454 20.5595 21.1183 20.7046 20.7872L23.8918 13.5129Z" fill="white"/>
</svg>
