<svg width="20" height="21" viewBox="0 0 20 21" fill="none" xmlns="http://www.w3.org/2000/svg">
<circle cx="10" cy="10.9326" r="9.25" fill="white" stroke="#CACDD8" stroke-width="1.5"/>
<path d="M6.04622 15.6762H6.10156L8.6658 15.4425C8.94669 15.4146 9.20941 15.2908 9.40986 15.092L14.9442 9.5577C15.159 9.33078 15.2751 9.02795 15.267 8.71558C15.2589 8.40322 15.1274 8.10679 14.9011 7.89126L13.2162 6.20636C12.9963 5.99981 12.7082 5.88129 12.4066 5.87335C12.105 5.86541 11.811 5.96861 11.5805 6.16332L6.04622 11.6976C5.84746 11.8981 5.72369 12.1608 5.69571 12.4417L5.4313 15.0059C5.42301 15.096 5.4347 15.1868 5.46552 15.2718C5.49635 15.3569 5.54555 15.434 5.60962 15.4979C5.66708 15.5549 5.73523 15.6 5.81015 15.6306C5.88507 15.6612 5.96529 15.6767 6.04622 15.6762ZM12.3615 7.06726L14.0402 8.746L12.8104 9.94511L11.1624 8.29711L12.3615 7.06726ZM6.88867 12.5462L10.3507 9.10881L12.011 10.7691L8.56741 14.2127L6.72264 14.3849L6.88867 12.5462Z" fill="#A2A6B0"/>
</svg>
