<svg width="50" height="51" viewBox="0 0 50 51" fill="none" xmlns="http://www.w3.org/2000/svg">
<path d="M50 25.8962C50 12.0891 38.8071 0.89624 25 0.89624C11.1929 0.89624 0 12.0891 0 25.8962C0 39.7034 11.1929 50.8962 25 50.8962H50V25.8962Z" fill="#0156FF"/>
<path d="M13.3511 15.7473C12.64 15.7473 11.958 16.0298 11.4552 16.5326C10.9524 17.0354 10.6699 17.7174 10.6699 18.4285V33.1749H13.3511C13.3511 34.2415 13.7748 35.2645 14.529 36.0187C15.2833 36.7729 16.3062 37.1966 17.3728 37.1966C18.4395 37.1966 19.4624 36.7729 20.2166 36.0187C20.9709 35.2645 21.3946 34.2415 21.3946 33.1749H29.4381C29.4381 34.2415 29.8618 35.2645 30.616 36.0187C31.3703 36.7729 32.3932 37.1966 33.4598 37.1966C34.5265 37.1966 35.5494 36.7729 36.3036 36.0187C37.0579 35.2645 37.4816 34.2415 37.4816 33.1749H40.1628V26.472L36.141 21.1096H32.1193V15.7473H13.3511ZM32.1193 23.1205H35.4707L38.1117 26.472H32.1193V23.1205ZM17.3728 31.164C17.9062 31.164 18.4176 31.3759 18.7947 31.753C19.1719 32.1301 19.3837 32.6416 19.3837 33.1749C19.3837 33.7082 19.1719 34.2197 18.7947 34.5968C18.4176 34.9739 17.9062 35.1858 17.3728 35.1858C16.8395 35.1858 16.328 34.9739 15.9509 34.5968C15.5738 34.2197 15.362 33.7082 15.362 33.1749C15.362 32.6416 15.5738 32.1301 15.9509 31.753C16.328 31.3759 16.8395 31.164 17.3728 31.164ZM33.4598 31.164C33.9932 31.164 34.5046 31.3759 34.8817 31.753C35.2589 32.1301 35.4707 32.6416 35.4707 33.1749C35.4707 33.7082 35.2589 34.2197 34.8817 34.5968C34.5046 34.9739 33.9932 35.1858 33.4598 35.1858C32.9265 35.1858 32.4151 34.9739 32.0379 34.5968C31.6608 34.2197 31.449 33.7082 31.449 33.1749C31.449 32.6416 31.6608 32.1301 32.0379 31.753C32.4151 31.3759 32.9265 31.164 33.4598 31.164Z" fill="white"/>
</svg>
