<svg width="19" height="19" viewBox="0 0 19 19" fill="none" xmlns="http://www.w3.org/2000/svg">
<path d="M4.95072 2.99153C3.79204 4.1485 3.11812 5.70376 3.06631 7.34035C3.0145 8.97695 3.58868 10.5717 4.67185 11.7997C5.75503 13.0276 7.26567 13.7963 8.89594 13.9492C10.4965 14.0992 12.0941 13.6446 13.3749 12.6767L16.7061 16.0087L16.7061 16.0087C16.789 16.0915 16.8873 16.1572 16.9955 16.2021C17.1038 16.2469 17.2198 16.27 17.3369 16.27C17.4541 16.27 17.5701 16.2469 17.6783 16.2021C17.7866 16.1572 17.8849 16.0915 17.9678 16.0087C18.0506 15.9258 18.1163 15.8275 18.1611 15.7192C18.206 15.611 18.229 15.495 18.229 15.3779C18.229 15.2607 18.206 15.1447 18.1611 15.0365C18.1163 14.9282 18.0506 14.8299 17.9678 14.747L17.9677 14.747L14.636 11.4161C15.6013 10.1351 16.0539 8.53858 15.903 6.93955C15.7493 5.31066 14.9808 3.80151 13.7539 2.71913C12.5269 1.63674 10.9337 1.06244 9.29838 1.11304C7.66303 1.16365 6.10838 1.83536 4.95072 2.99153ZM4.95072 2.99153L5.02138 3.06229L4.95072 2.99153ZM12.7887 4.25378C13.2263 4.68428 13.5743 5.19715 13.8127 5.76281C14.051 6.32848 14.175 6.93574 14.1775 7.54956C14.18 8.16339 14.061 8.77164 13.8272 9.33923C13.5935 9.90681 13.2497 10.4225 12.8156 10.8565C12.3816 11.2906 11.8659 11.6344 11.2983 11.8682C10.7307 12.1019 10.1225 12.221 9.50865 12.2185C8.89482 12.216 8.28756 12.092 7.7219 11.8536C7.15623 11.6152 6.64336 11.2672 6.21287 10.8297C5.35255 9.95522 4.87263 8.77625 4.87762 7.54956C4.88262 6.32288 5.37213 5.14786 6.23954 4.28045C7.10694 3.41304 8.28196 2.92353 9.50865 2.91854C10.7353 2.91354 11.9143 3.39347 12.7887 4.25378Z" fill="black" stroke="black" stroke-width="0.2"/>
</svg>
