<svg width="77" height="27" viewBox="0 0 77 27" fill="none" xmlns="http://www.w3.org/2000/svg">
<g clip-path="url(#clip0_5_241)">
<path d="M27.2846 10.1112L21.1213 15.5229H5.85683C4.43303 15.521 3.05772 16.0277 1.99023 16.9473L9.68903 10.1856L9.80715 10.0835L19.4527 1.60547C21.008 0.239882 23.1915 -0.212075 25.1807 0.419845C27.17 1.05176 28.6627 2.67156 29.0967 4.66906C29.5306 6.66657 28.8398 8.73831 27.2846 10.1039V10.1112Z" fill="#F15B41"/>
<path d="M5.85671 11.5799C9.09128 11.5799 11.7134 9.02043 11.7134 5.86319C11.7134 2.70594 9.09128 0.146484 5.85671 0.146484C2.62214 0.146484 0 2.70594 0 5.86319C0 9.02043 2.62214 11.5799 5.85671 11.5799Z" fill="#F99D1D"/>
<path d="M5.85698 15.5228C4.43317 15.521 3.05787 16.0276 1.99038 16.9473L1.94104 16.991C-0.463624 19.1021 -0.659766 22.7161 1.50295 25.0633C3.66566 27.4105 7.36825 27.602 9.77291 25.4909L21.123 15.5243L5.85698 15.5228Z" fill="#272560"/>
<path d="M21.1128 15.5272L9.76153 25.4939C8.68669 26.4373 7.29118 26.9574 5.8457 26.9534L23.3585 26.9533C26.7365 26.9006 29.1215 24.42 29.1215 21.2373C29.1215 18.0547 26.5561 15.5712 23.3585 15.5214L21.1128 15.5272Z" fill="#00B6BD"/>
<path d="M37.612 22.1743C37.1244 22.1919 36.6527 22.0042 36.3175 21.6591C35.9894 21.3108 35.8145 20.8514 35.8301 20.3792C35.8255 19.9036 35.9463 19.4347 36.181 19.0175C36.3873 18.6444 36.6391 18.297 36.931 17.9828L44.1773 10.0112H37.861C37.249 10.0112 36.811 9.80687 36.571 9.40114C36.3374 8.99356 36.2208 8.53228 36.2335 8.06573C36.2167 7.6161 36.3498 7.17322 36.613 6.8033C36.8739 6.45323 37.2986 6.2546 37.7425 6.27498H48.9021C49.3739 6.25382 49.8341 6.42153 50.1755 6.73909C50.492 7.04703 50.6525 7.48487 50.6525 8.03946C50.6659 8.47133 50.5733 8.90008 50.3825 9.29022C50.1994 9.63014 49.9699 9.94434 49.7001 10.2243L42.1538 18.4367H49.3041C49.7342 18.4262 50.1437 18.616 50.4065 18.9475C50.6866 19.3181 50.8279 19.7708 50.807 20.2303C50.8274 20.7091 50.7095 21.1839 50.4665 21.6008C50.222 21.9817 49.7886 22.1758 49.1796 22.1758L37.612 22.1743Z" fill="#272560"/>
<path d="M55.1423 22.3845C53.1563 22.3845 52.7424 21.392 52.7424 20.5601V8.41743C52.7424 7.78256 52.9389 7.26883 53.3288 6.89083C53.7188 6.51283 54.3398 6.32018 55.1768 6.32018C55.8817 6.32018 56.4397 6.47635 56.8372 6.78575C57.2347 7.09516 57.4552 7.59429 57.4552 8.23645V20.4959C57.4552 21.1629 57.2392 21.6533 56.8132 21.9554C56.3872 22.2575 55.8397 22.3845 55.1423 22.3845ZM55.1423 5.01689C54.3683 5.01689 53.7338 4.79651 53.2538 4.36159C52.7739 3.92667 52.5234 3.32683 52.5234 2.58981C52.5049 1.9364 52.7688 1.3054 53.2508 0.85013C53.7263 0.396239 54.3638 0.164185 55.1423 0.164185C55.7842 0.165547 56.4082 0.370495 56.9197 0.747968C57.4777 1.14786 57.7612 1.76959 57.7612 2.59564C57.7612 3.33267 57.5152 3.92959 57.0307 4.36889C56.5462 4.80818 55.9117 5.02127 55.1423 5.02127V5.01689Z" fill="#272560"/>
<path d="M62.6326 27.0375C60.7757 27.0375 60.3827 26.029 60.3827 25.1825V8.00591C60.3666 7.46791 60.5794 6.9473 60.9707 6.56687C61.3591 6.18886 61.9816 5.99621 62.8186 5.99621C63.3392 5.99107 63.8535 6.10716 64.3185 6.33481C64.812 6.58146 65.0685 7.06455 65.0685 7.7578C65.1685 7.6459 65.276 7.53109 65.391 7.41336C65.7062 7.102 66.0587 6.82858 66.441 6.59898C67.37 6.03477 68.4463 5.74291 69.5413 5.75832C70.5907 5.73848 71.6302 5.95738 72.5772 6.39757C73.4439 6.81383 74.1985 7.4216 74.7807 8.17229C75.3874 8.97522 75.8303 9.88382 76.0856 10.849C76.3776 11.9395 76.5208 13.0628 76.5116 14.1897C76.5223 15.3376 76.3575 16.4808 76.0226 17.5815C75.7267 18.5593 75.2409 19.4729 74.5917 20.2728C73.9661 21.0265 73.1733 21.6327 72.2727 22.0461C71.2929 22.4833 70.2247 22.7012 69.1469 22.6838C68.4251 22.704 67.7049 22.6053 67.0169 22.392C66.5228 22.229 66.0532 22.0027 65.6205 21.7191C65.3859 21.5642 65.1696 21.3846 64.9755 21.1835V25.0949C64.9755 25.775 64.785 26.2771 64.4085 26.5865C64.032 26.8959 63.4531 27.0375 62.6326 27.0375ZM68.3414 9.64928C67.8303 9.63725 67.3246 9.75335 66.8729 9.98642C66.4479 10.2209 66.0836 10.5469 65.808 10.9395C65.4983 11.3836 65.2723 11.8778 65.1405 12.3989C64.9853 13.0046 64.9092 13.6268 64.914 14.251C64.914 15.6725 65.214 16.8124 65.814 17.6399C66.414 18.4674 67.2284 18.8542 68.3474 18.8542C69.4663 18.8542 70.2808 18.4397 70.8463 17.5859C71.4118 16.7321 71.7133 15.5952 71.7133 14.251C71.7151 13.6285 71.6365 13.0082 71.4793 12.4048C71.3475 11.8859 71.1264 11.3924 70.8253 10.9453C70.5575 10.5522 70.1977 10.2266 69.7753 9.99517C69.3358 9.76189 68.842 9.64276 68.3414 9.64928Z" fill="#272560"/>
</g>
<defs>
<clipPath id="clip0_5_241">
<rect width="77" height="27" fill="white"/>
</clipPath>
</defs>
</svg>
